<?xml version="1.0" standalone="no"?>
<!DOCTYPE svg PUBLIC "-//W3C//DTD SVG 20010904//EN"
 "http://www.w3.org/TR/2001/REC-SVG-20010904/DTD/svg10.dtd">
<svg version="1.0" xmlns="http://www.w3.org/2000/svg"
 width="700.000000pt" height="700.000000pt" viewBox="0 0 700.000000 700.000000"
 preserveAspectRatio="xMidYMid meet">
<metadata>
Created by potrace 1.11, written by Peter Selinger 2001-2013
</metadata>
<g transform="translate(0.000000,700.000000) scale(0.100000,-0.100000)"
fill="#000000" stroke="none">
<path d="M0 3500 l0 -3500 3500 0 3500 0 0 3500 0 3500 -3500 0 -3500 0 0
-3500z m4378 1530 c2 -564 0 -652 -12 -640 -20 21 -866 1203 -863 1206 1 2 79
14 172 28 214 32 560 64 660 62 l40 -1 3 -655z m717 639 c61 -5 166 -17 233
-26 l124 -16 48 -58 c73 -87 170 -230 244 -359 80 -140 167 -331 156 -345 -4
-5 -245 -356 -535 -780 -290 -423 -534 -777 -541 -785 -12 -12 -14 165 -14
1188 l0 1203 88 -6 c48 -3 137 -10 197 -16z m-1335 -1019 l620 -815 0 -828 c0
-485 -4 -827 -9 -825 -5 2 -244 221 -531 488 -287 267 -527 486 -534 488 -6 1
-65 -52 -131 -118 l-120 -120 40 -39 c22 -21 319 -299 660 -616 l620 -578 0
-121 0 -120 -75 -23 c-236 -72 -484 -106 -775 -107 -252 0 -384 14 -605 63
-120 26 -124 28 -132 57 -8 31 -806 3561 -815 3605 -5 25 1 28 135 87 181 79
448 178 637 235 162 50 375 107 388 104 4 -1 287 -369 627 -817z m-1923 -163
c72 -298 130 -543 128 -545 -2 -2 -524 154 -996 299 l-97 30 14 72 c7 40 23
111 35 159 l21 87 107 69 c193 125 626 372 651 372 3 0 64 -244 137 -543z
m4227 -243 c42 -178 57 -313 58 -504 0 -254 -31 -454 -107 -685 -175 -531
-528 -979 -1030 -1308 -105 -68 -267 -159 -347 -195 l-48 -21 0 599 0 599 717
821 c394 451 720 817 724 813 3 -4 18 -58 33 -119z m-4571 -522 c264 -93 482
-175 487 -183 13 -24 424 -1989 417 -1995 -9 -10 -189 89 -312 171 -639 428
-1062 1094 -1180 1856 -16 106 -35 348 -28 361 2 4 34 -4 71 -18 37 -14 282
-100 545 -192z"/>
</g>
</svg>
