<?xml version="1.0" standalone="no"?>
<!DOCTYPE svg PUBLIC "-//W3C//DTD SVG 20010904//EN"
 "http://www.w3.org/TR/2001/REC-SVG-20010904/DTD/svg10.dtd">
<svg version="1.0" xmlns="http://www.w3.org/2000/svg"
 width="864.000000pt" height="864.000000pt" viewBox="0 0 864.000000 864.000000"
 preserveAspectRatio="xMidYMid meet">
<metadata>
Created by potrace 1.11, written by Peter Selinger 2001-2013
</metadata>
<g transform="translate(0.000000,864.000000) scale(0.100000,-0.100000)"
fill="#000000" stroke="none">
<path d="M5576 8073 c-1 -1 -49 -4 -106 -7 -58 -3 -130 -8 -160 -11 -234 -20
-255 -22 -331 -30 -83 -8 -180 -19 -259 -30 -19 -3 -53 -7 -75 -10 -22 -3 -51
-7 -65 -9 -14 -3 -72 -12 -129 -21 -134 -21 -137 -22 -103 -62 15 -17 65 -83
112 -148 82 -112 95 -129 133 -174 9 -12 17 -24 17 -27 0 -3 19 -30 43 -59 23
-30 58 -75 77 -102 19 -26 39 -52 43 -58 4 -5 35 -46 68 -90 32 -44 65 -87 72
-96 6 -8 17 -22 22 -31 11 -17 157 -212 183 -245 9 -12 24 -31 32 -43 21 -30
238 -322 253 -340 7 -8 30 -40 52 -70 21 -30 42 -57 45 -60 4 -3 20 -25 37
-50 17 -25 40 -56 52 -69 12 -13 21 -27 21 -30 0 -3 14 -21 30 -40 17 -18 30
-36 30 -40 0 -3 14 -22 30 -41 16 -19 34 -40 40 -47 5 -7 10 -17 10 -23 0 -5
3 -10 8 -10 6 0 7 132 1 150 -1 3 -1 9 1 15 5 28 4 95 -2 95 -4 0 -3 13 2 30
5 17 5 32 0 35 -5 3 -5 16 0 30 6 15 6 27 0 30 -6 3 -6 15 0 30 6 15 6 27 0
30 -6 3 -6 15 0 30 6 15 6 27 0 30 -6 3 -6 15 0 30 6 15 6 27 0 30 -6 3 -6 15
0 30 6 15 6 27 0 30 -6 3 -6 15 0 30 6 15 6 27 0 30 -6 3 -6 15 0 30 6 15 6
27 -1 30 -5 4 -6 11 -3 17 9 14 8 433 -1 447 -3 6 -2 11 4 11 6 0 6 11 1 30
-5 17 -5 30 0 30 4 0 5 12 1 27 -4 15 -4 47 -1 70 4 24 3 46 -1 49 -5 2 -4 16
1 29 6 15 6 27 0 30 -6 3 -6 15 0 30 6 15 6 27 0 30 -6 3 -6 15 0 30 6 15 6
27 0 30 -6 3 -6 15 0 30 6 15 6 27 0 30 -6 3 -6 15 0 30 6 15 6 27 0 30 -6 3
-6 15 0 30 6 15 6 27 0 30 -6 3 -6 15 0 30 6 15 6 27 0 30 -6 3 -6 15 0 30 6
15 6 27 0 30 -6 3 -6 15 0 30 5 14 5 27 0 30 -5 3 -5 18 0 35 5 17 5 30 1 30
-5 0 -6 11 -4 24 5 24 5 24 -87 22 -50 0 -92 -2 -94 -3z"/>
<path d="M6410 6159 l0 -1901 27 34 c15 18 30 35 33 38 3 3 18 22 33 43 16 20
38 48 50 61 12 12 32 36 44 52 12 16 30 39 41 52 21 24 61 73 109 132 15 20
34 42 40 50 27 32 128 156 135 165 8 11 147 180 218 265 25 30 63 78 85 105
22 28 42 52 45 55 3 3 32 39 64 80 32 41 66 82 75 90 9 9 38 45 66 80 27 36
60 76 72 90 12 14 87 106 168 205 80 99 154 189 163 200 9 11 37 45 62 75 25
30 52 64 62 75 9 11 91 112 183 225 92 113 193 237 225 275 l57 70 -33 65
c-18 36 -42 83 -53 105 -23 46 -64 118 -71 125 -3 3 -14 21 -24 40 -57 105
-304 451 -379 532 -7 8 -37 43 -67 78 -30 36 -93 104 -140 152 -91 94 -76 86
-215 104 -22 2 -58 7 -80 10 -41 5 -62 7 -175 18 -36 4 -83 8 -105 11 -87 9
-173 17 -240 21 -38 2 -106 6 -150 9 -44 2 -135 7 -202 9 l-123 5 0 -1900z"/>
<path d="M3530 7695 c-313 -83 -794 -238 -970 -312 -8 -3 -19 -7 -25 -9 -5 -1
-23 -8 -40 -15 -16 -7 -32 -13 -35 -14 -3 -1 -14 -5 -25 -10 -11 -5 -49 -21
-85 -35 -212 -87 -275 -115 -278 -122 -2 -4 -10 -8 -17 -8 -16 0 -285 -128
-285 -135 0 -3 12 -58 26 -123 14 -64 28 -128 30 -142 3 -14 7 -33 10 -42 3
-10 7 -30 10 -45 2 -16 11 -59 20 -98 9 -38 18 -81 20 -95 3 -14 7 -31 10 -39
2 -8 7 -30 10 -50 3 -20 10 -52 15 -72 8 -33 16 -70 35 -159 2 -14 20 -95 40
-180 19 -85 35 -162 36 -170 0 -8 9 -53 20 -100 23 -98 27 -116 33 -150 3 -14
12 -54 20 -90 7 -36 21 -99 30 -140 8 -41 17 -84 20 -95 2 -11 16 -74 30 -140
14 -66 28 -127 31 -135 3 -8 8 -31 10 -50 3 -19 7 -43 10 -52 3 -9 7 -27 9
-40 4 -21 8 -37 20 -95 3 -13 7 -33 11 -45 3 -13 7 -32 8 -43 2 -11 18 -85 35
-165 18 -80 37 -167 43 -195 6 -27 14 -63 19 -79 5 -15 6 -32 3 -37 -3 -5 -2
-9 3 -9 4 0 9 -10 9 -22 2 -24 11 -70 20 -100 3 -10 7 -30 10 -45 3 -16 7 -35
9 -43 2 -8 7 -28 10 -45 2 -16 7 -41 11 -55 3 -14 7 -34 9 -45 2 -11 7 -31 10
-45 6 -21 24 -107 39 -185 2 -11 7 -27 10 -35 3 -8 8 -28 11 -45 2 -16 9 -52
15 -80 6 -27 13 -61 16 -75 3 -14 12 -54 20 -90 8 -35 22 -98 30 -140 9 -41
18 -82 19 -90 7 -28 47 -215 51 -235 2 -11 13 -61 24 -111 12 -51 23 -105 25
-120 2 -16 4 -29 5 -29 1 0 3 -7 5 -15 35 -158 46 -213 50 -237 2 -15 9 -48
16 -73 6 -25 13 -56 15 -70 3 -14 9 -38 14 -55 5 -16 11 -43 14 -60 2 -16 9
-50 14 -75 13 -59 44 -202 47 -215 7 -32 15 -67 26 -120 7 -33 13 -62 14 -65
1 -3 5 -23 10 -45 11 -57 14 -72 21 -98 6 -25 12 -56 18 -92 3 -13 7 -28 9
-32 3 -5 8 -30 11 -57 4 -27 9 -52 11 -56 2 -3 13 -50 24 -103 12 -53 30 -141
42 -194 12 -54 22 -104 23 -111 3 -17 19 -32 42 -36 32 -7 118 -28 134 -34 20
-7 196 -43 270 -56 14 -2 41 -7 60 -10 19 -4 51 -9 70 -11 19 -3 49 -7 65 -9
153 -23 306 -31 570 -30 234 0 361 5 465 19 19 3 58 7 85 10 55 6 96 13 135
20 14 3 39 7 55 9 53 7 97 16 210 42 61 14 118 27 127 29 48 10 178 48 211 61
20 7 37 11 37 8 0 -4 6 -2 13 3 6 6 23 13 37 16 l26 6 -1 210 0 209 -131 128
c-72 71 -249 244 -393 384 -144 140 -348 340 -454 443 -106 104 -300 294 -432
422 -132 129 -308 300 -391 382 -83 81 -202 198 -265 259 l-114 112 207 213
207 213 22 -19 c12 -11 63 -60 114 -110 50 -49 208 -202 349 -340 142 -137
314 -304 381 -370 68 -66 237 -230 376 -365 138 -135 298 -290 354 -345 57
-55 118 -114 137 -132 l33 -32 1 1437 c0 790 -4 1442 -9 1447 -7 8 -43 59
-203 280 -112 156 -175 242 -181 250 -5 6 -26 35 -48 65 -22 30 -43 60 -47 65
-5 6 -53 73 -109 150 -55 77 -109 151 -119 165 -14 19 -351 483 -476 655 -7
11 -31 43 -51 72 -21 28 -45 61 -53 73 -8 12 -26 37 -40 55 -14 18 -33 44 -42
57 -59 82 -310 428 -327 450 -12 14 -21 31 -21 37 0 6 -4 11 -9 11 -4 0 -21
19 -36 42 -15 23 -32 47 -37 52 -5 6 -34 47 -65 91 -32 44 -60 82 -63 85 -3 3
-26 35 -50 72 -36 54 -50 67 -70 67 -14 0 -81 -15 -150 -34z"/>
<path d="M1180 6780 c-14 -11 -31 -20 -37 -20 -7 0 -13 -4 -13 -10 0 -5 -4
-10 -10 -10 -5 0 -42 -21 -82 -47 -40 -27 -78 -50 -83 -53 -44 -22 -381 -257
-585 -409 -83 -61 -84 -62 -122 -94 -15 -12 -53 -42 -86 -67 l-59 -45 -22 -95
c-12 -52 -24 -106 -26 -120 -3 -14 -8 -38 -11 -55 -4 -16 -8 -41 -9 -55 -2
-14 -6 -41 -9 -60 -13 -73 -22 -136 -21 -154 0 -22 18 -32 110 -64 17 -6 165
-60 330 -121 165 -60 307 -111 315 -113 8 -2 17 -5 20 -8 3 -3 39 -16 80 -29
41 -14 82 -28 90 -32 20 -10 74 -30 285 -105 99 -36 195 -71 213 -79 18 -8 38
-15 45 -15 7 0 23 -6 37 -13 14 -8 36 -16 48 -19 18 -5 22 -3 18 10 -3 9 -8
33 -11 52 -5 30 -14 73 -39 200 -3 14 -17 81 -31 150 -14 69 -28 136 -31 150
-2 14 -15 79 -29 145 -13 66 -27 135 -30 154 -3 19 -8 37 -10 41 -3 4 -6 22
-9 41 -2 19 -11 66 -20 104 -8 39 -17 84 -20 100 -3 17 -21 109 -41 205 -20
96 -38 184 -40 195 -5 31 -15 79 -20 95 -3 8 -7 33 -11 55 -3 22 -7 42 -9 45
-2 3 -6 26 -10 50 -6 45 -24 120 -28 120 -1 0 -13 -9 -27 -20z"/>
<path d="M8464 5968 c-11 -13 -33 -41 -49 -63 -33 -44 -55 -71 -70 -89 -5 -6
-23 -29 -39 -51 -17 -22 -33 -42 -36 -45 -6 -5 -201 -253 -235 -299 -26 -35
-238 -305 -245 -311 -21 -20 -80 -100 -80 -109 0 -6 -4 -11 -8 -11 -4 0 -26
-24 -47 -52 -22 -29 -42 -55 -45 -58 -5 -5 -268 -339 -305 -389 -11 -14 -57
-73 -103 -131 -45 -58 -90 -115 -100 -128 -9 -12 -22 -28 -27 -35 -6 -6 -76
-95 -155 -197 -80 -102 -149 -190 -155 -197 -12 -15 -20 -25 -65 -83 -19 -25
-39 -50 -45 -57 -5 -7 -14 -18 -20 -25 -33 -42 -91 -115 -102 -126 -7 -7 -13
-16 -13 -20 0 -4 -14 -21 -30 -39 -17 -18 -30 -36 -30 -42 0 -5 -3 -11 -8 -13
-4 -1 -23 -23 -42 -48 -49 -63 -52 -67 -114 -143 l-55 -68 0 -82 c-2 -207 0
-300 5 -308 3 -5 0 -9 -6 -9 -6 0 -9 -4 -5 -10 3 -5 5 -67 5 -137 0 -70 0
-168 0 -218 1 -106 1 -97 1 -160 -1 -54 -1 -137 -1 -309 0 -60 3 -113 6 -117
3 -5 0 -9 -6 -9 -6 0 -9 -4 -5 -10 3 -5 5 -64 5 -132 0 -68 0 -159 0 -203 0
-44 0 -102 -1 -130 0 -27 0 -57 0 -65 0 -8 1 -57 1 -108 l1 -93 97 52 c53 29
100 57 104 63 4 6 8 7 8 3 0 -5 12 0 28 11 15 11 49 32 76 47 28 15 55 32 60
37 6 5 49 34 96 64 76 50 231 161 285 205 61 50 218 183 238 202 119 113 201
195 266 266 142 156 138 151 239 281 40 52 80 103 87 112 7 9 18 25 24 36 6
11 17 26 23 34 7 7 31 40 53 73 55 84 64 98 71 118 3 9 10 17 14 17 4 0 10 8
13 18 7 21 37 71 55 90 6 7 12 19 12 27 0 7 3 15 8 17 8 3 154 294 192 383 27
63 90 223 90 229 0 3 5 17 12 33 6 15 12 30 13 33 1 3 18 58 39 122 21 65 39
125 41 135 2 10 4 18 5 18 1 0 3 7 5 15 1 8 11 44 20 80 10 36 19 74 20 85 2
11 7 38 13 60 6 22 14 58 17 80 7 44 13 70 15 70 1 0 3 18 5 40 2 22 6 54 9
70 33 200 41 329 40 620 0 225 -7 385 -19 455 -2 14 -7 52 -11 85 -8 82 -12
110 -14 110 -3 0 -9 38 -15 89 -3 27 -8 52 -10 56 -2 4 -7 20 -9 36 -6 30 -31
140 -47 209 -5 22 -10 46 -11 53 -2 18 -12 15 -34 -10z"/>
<path d="M5 4602 c5 -126 10 -184 25 -305 5 -43 9 -81 9 -85 -1 -4 0 -9 1 -12
1 -3 4 -18 6 -35 6 -36 30 -168 39 -210 3 -16 8 -39 10 -50 2 -11 8 -40 15
-65 6 -25 13 -58 16 -75 3 -16 10 -38 15 -47 5 -9 8 -21 7 -25 -1 -4 6 -33 15
-63 10 -30 29 -91 43 -135 14 -44 30 -88 35 -97 5 -10 9 -26 9 -36 0 -10 4
-22 8 -27 5 -6 17 -32 27 -60 59 -164 271 -602 298 -613 4 -2 7 -7 7 -12 0
-11 63 -114 73 -118 4 -2 7 -8 7 -13 0 -7 61 -102 92 -144 5 -5 45 -59 90
-120 89 -120 160 -206 252 -307 158 -175 372 -377 501 -475 6 -5 26 -21 46
-38 20 -16 46 -37 59 -45 12 -8 28 -20 34 -26 39 -37 368 -254 386 -254 5 0
10 -4 10 -10 0 -5 5 -10 10 -10 6 0 28 -11 50 -25 59 -37 349 -183 354 -178 2
2 -3 32 -11 66 -8 34 -17 72 -19 85 -11 58 -12 64 -59 272 -10 41 -18 82 -19
90 -1 8 -10 47 -19 85 -24 103 -102 455 -112 505 -2 14 -9 45 -16 70 -6 25
-13 56 -15 70 -3 14 -9 42 -15 63 -6 21 -12 50 -14 65 -2 15 -10 54 -19 86 -9
33 -14 62 -11 64 2 3 0 13 -5 23 -6 9 -13 34 -16 54 -3 21 -7 45 -10 54 -6 28
-55 245 -60 266 -2 11 -24 112 -50 225 -25 113 -48 216 -50 230 -3 14 -9 41
-14 60 -5 19 -11 46 -14 60 -6 30 -24 117 -31 145 -11 45 -16 72 -21 100 -3
17 -16 75 -29 130 -13 55 -33 145 -45 200 -12 55 -25 111 -29 124 -7 24 -38
40 -116 61 -16 4 -138 45 -270 90 -132 45 -247 83 -255 85 -8 2 -16 4 -17 5
-2 2 -6 3 -10 5 -5 1 -15 4 -23 8 -23 9 -1037 347 -1103 367 l-57 18 5 -116z"/>
</g>
</svg>
