<svg width="0" height="0" class="hidden">
  <symbol viewBox="0 0 8 16" xmlns="http://www.w3.org/2000/svg" id="facebook">
    <title>facebook</title>
    <path d="M7.476 9l.415-2.896H5.297V4.225c0-.792.362-1.564 1.524-1.564H8V.196S6.93 0 5.907 0C3.77 0 2.374 1.387 2.374 3.897v2.207H0V9h2.374v7h2.923V9h2.179z"></path>
  </symbol>
  <symbol viewBox="0 0 20 16" xmlns="http://www.w3.org/2000/svg" id="twitter">
    <title>twitter</title>
    <path d="M17.944 3.987c.013.175.013.35.013.525C17.957 9.85 13.833 16 6.294 16c-2.322 0-4.48-.663-6.294-1.812.33.037.647.05.99.05 1.916 0 3.68-.638 5.089-1.725-1.802-.038-3.313-1.2-3.833-2.8.254.037.508.062.774.062.368 0 .736-.05 1.079-.137-1.878-.376-3.287-2-3.287-3.963v-.05c.546.3 1.18.488 1.853.512A4.02 4.02 0 0 1 .838 2.775c0-.75.203-1.438.558-2.038a11.71 11.71 0 0 0 8.452 4.225 4.492 4.492 0 0 1-.102-.924c0-2.226 1.828-4.038 4.1-4.038 1.18 0 2.245.487 2.994 1.275A8.145 8.145 0 0 0 19.442.3a4.038 4.038 0 0 1-1.802 2.225A8.316 8.316 0 0 0 20 1.9a8.74 8.74 0 0 1-2.056 2.087z"></path>
  </symbol>
  <symbol viewBox="0 0 16 16" xmlns="http://www.w3.org/2000/svg" id="instagram">
    <title>instagram</title>
    <path d="M11.214 0a4.763 4.763 0 0 1 4.758 4.758v6.456a4.763 4.763 0 0 1-4.758 4.758H4.758A4.763 4.763 0 0 1 0 11.214V4.758A4.763 4.763 0 0 1 4.758 0zm0 1.606H4.758a3.152 3.152 0 0 0-3.152 3.152v6.456a3.153 3.153 0 0 0 3.152 3.152h6.456a3.152 3.152 0 0 0 3.152-3.152V4.758a3.153 3.153 0 0 0-3.152-3.152zm-3.228 2.25a4.136 4.136 0 0 1 4.132 4.13 4.136 4.136 0 0 1-4.132 4.13 4.136 4.136 0 0 1-4.13-4.13 4.136 4.136 0 0 1 4.13-4.13zm0 1.606a2.524 2.524 0 1 0 0 5.048 2.524 2.524 0 0 0 0-5.048zm4.139-2.565a.99.99 0 1 1 0 1.979.99.99 0 0 1 0-1.98z"></path>
  </symbol>
</svg>