<svg width="0" height="0" class="hidden">
    <symbol viewBox="0 0 8 16" xmlns="http://www.w3.org/2000/svg" id="facebook">
        <title>facebook</title>
        <path d="M7.476 9l.415-2.896H5.297V4.225c0-.792.362-1.564 1.524-1.564H8V.196S6.93 0 5.907 0C3.77 0 2.374 1.387 2.374 3.897v2.207H0V9h2.374v7h2.923V9h2.179z"></path>
    </symbol>
    <symbol viewBox="0 0 20 16" xmlns="http://www.w3.org/2000/svg" id="twitter">
        <title>twitter</title>
        <path d="M17.944 3.987c.013.175.013.35.013.525C17.957 9.85 13.833 16 6.294 16c-2.322 0-4.48-.663-6.294-1.812.33.037.647.05.99.05 1.916 0 3.68-.638 5.089-1.725-1.802-.038-3.313-1.2-3.833-2.8.254.037.508.062.774.062.368 0 .736-.05 1.079-.137-1.878-.376-3.287-2-3.287-3.963v-.05c.546.3 1.18.488 1.853.512A4.02 4.02 0 0 1 .838 2.775c0-.75.203-1.438.558-2.038a11.71 11.71 0 0 0 8.452 4.225 4.492 4.492 0 0 1-.102-.924c0-2.226 1.828-4.038 4.1-4.038 1.18 0 2.245.487 2.994 1.275A8.145 8.145 0 0 0 19.442.3a4.038 4.038 0 0 1-1.802 2.225A8.316 8.316 0 0 0 20 1.9a8.74 8.74 0 0 1-2.056 2.087z"></path>
    </symbol>
    <symbol viewBox="0 0 16 16" xmlns="http://www.w3.org/2000/svg" id="instagram">
        <title>instagram</title>
        <path d="M11.214 0a4.763 4.763 0 0 1 4.758 4.758v6.456a4.763 4.763 0 0 1-4.758 4.758H4.758A4.763 4.763 0 0 1 0 11.214V4.758A4.763 4.763 0 0 1 4.758 0zm0 1.606H4.758a3.152 3.152 0 0 0-3.152 3.152v6.456a3.153 3.153 0 0 0 3.152 3.152h6.456a3.152 3.152 0 0 0 3.152-3.152V4.758a3.153 3.153 0 0 0-3.152-3.152zm-3.228 2.25a4.136 4.136 0 0 1 4.132 4.13 4.136 4.136 0 0 1-4.132 4.13 4.136 4.136 0 0 1-4.13-4.13 4.136 4.136 0 0 1 4.13-4.13zm0 1.606a2.524 2.524 0 1 0 0 5.048 2.524 2.524 0 0 0 0-5.048zm4.139-2.565a.99.99 0 1 1 0 1.979.99.99 0 0 1 0-1.98z"></path>
    </symbol>
    <symbol viewBox="-2 -1.5 24 24" xmlns="http://www.w3.org/2000/svg" id="users">
        <title>users</title>
        <path d='M3.534 11.07a1 1 0 1 1 .733 1.86A3.579 3.579 0 0 0 2 16.26V18a1 1 0 0 0 1 1h8a1 1 0 0 0 1-1v-1.647a3.658 3.658 0 0 0-2.356-3.419 1 1 0 1 1 .712-1.868A5.658 5.658 0 0 1 14 16.353V18a3 3 0 0 1-3 3H3a3 3 0 0 1-3-3v-1.74a5.579 5.579 0 0 1 3.534-5.19zM7 1a4 4 0 0 1 4 4v2a4 4 0 1 1-8 0V5a4 4 0 0 1 4-4zm0 2a2 2 0 0 0-2 2v2a2 2 0 1 0 4 0V5a2 2 0 0 0-2-2zm9 17a1 1 0 0 1 0-2h1a1 1 0 0 0 1-1v-1.838a3.387 3.387 0 0 0-2.316-3.213 1 1 0 1 1 .632-1.898A5.387 5.387 0 0 1 20 15.162V17a3 3 0 0 1-3 3h-1zM13 2a1 1 0 0 1 0-2 4 4 0 0 1 4 4v2a4 4 0 0 1-4 4 1 1 0 0 1 0-2 2 2 0 0 0 2-2V4a2 2 0 0 0-2-2z'></path>
    </symbol>
    <symbol viewBox="-4 -2.5 24 24" xmlns="http://www.w3.org/2000/svg" id="train">
        <title>train</title>
        <path d='M4 2a2 2 0 0 0-2 2v5.038l12-.023V4a2 2 0 0 0-2-2H4zm7.667 15L11 16H5l-.667 1H4a4 4 0 0 1-4-4V4a4 4 0 0 1 4-4h8a4 4 0 0 1 4 4v9a4 4 0 0 1-4 4h-.333zM4 14a1 1 0 1 0 0-2 1 1 0 0 0 0 2zm8 0a1 1 0 1 0 0-2 1 1 0 0 0 0 2zm0-11a1 1 0 0 1 1 1v3a1 1 0 0 1-2 0V4a1 1 0 0 1 1-1zM4.314 17.029l7.371-.001.279.417A1 1 0 0 1 11.13 19H4.87a1 1 0 0 1-.833-1.555l.278-.416z'/>
    </symbol>
    <symbol viewBox="-2 -3 24 24" xmlns="http://www.w3.org/2000/svg" id="calendar">
        <title>calendar</title>
        <path d='M18 7V5a1 1 0 0 0-1-1h-1v1a1 1 0 0 1-2 0V4H6v1a1 1 0 1 1-2 0V4H3a1 1 0 0 0-1 1v2h16zm0 2H2v6a1 1 0 0 0 1 1h14a1 1 0 0 0 1-1V9zm-2-7h1a3 3 0 0 1 3 3v10a3 3 0 0 1-3 3H3a3 3 0 0 1-3-3V5a3 3 0 0 1 3-3h1V1a1 1 0 1 1 2 0v1h8V1a1 1 0 0 1 2 0v1z'/>
    </symbol>
    <symbol xmlns="http://www.w3.org/2000/svg" viewBox="0 0 24 24" id="phone">
        <title>Phone</title>
        <path d="M0 0h24v24H0z" fill="none"/>
        <path d="M6.62 10.79c1.44 2.83 3.76 5.14 6.59 6.59l2.2-2.2c.27-.27.67-.36 1.02-.24 1.12.37 2.33.57 3.57.57.55 0 1 .45 1 1V20c0 .55-.45 1-1 1-9.39 0-17-7.61-17-17 0-.55.45-1 1-1h3.5c.55 0 1 .45 1 1 0 1.25.2 2.45.57 3.57.11.35.03.74-.25 1.02l-2.2 2.2z"/>
    </symbol>
</svg>